# Blender v2.79 (sub 0) OBJ File: 'bricks.blend'
# www.blender.org
mtllib block_1x1r.mtl
o Cube.012
v 0.750000 1.189469 -0.750000
v 0.750000 1.189469 -0.250000
v 0.250000 1.189469 -0.250000
v 0.250000 1.189469 -0.750000
v 0.750000 1.500545 -0.750000
v 0.750000 1.500545 -0.250000
v 0.250000 1.500545 -0.750000
v 0.250000 1.500545 -0.250000
v 0.500000 0.000000 -1.000000
v 0.500000 1.200000 -1.000000
v 0.853553 0.000000 -0.853554
v 0.853553 1.200000 -0.853554
v 1.000000 0.000000 -0.500000
v 1.000000 1.200000 -0.500000
v 0.853553 0.000000 -0.146447
v 0.853553 1.200000 -0.146447
v 0.500000 0.000000 -0.000000
v 0.500000 1.200000 -0.000000
v 0.146446 0.000000 -0.146447
v 0.146446 1.200000 -0.146447
v -0.000000 0.000000 -0.500000
v -0.000000 1.200000 -0.500000
v 0.146446 0.000000 -0.853554
v 0.146446 1.200000 -0.853554
vt 0.000000 0.000000
vt 1.000000 0.000000
vt 1.000000 1.000000
vt 0.000000 1.000000
vt 1.000000 0.000000
vt 1.000000 1.000000
vt 0.000000 0.000000
vt 0.000000 1.000000
vt 0.000000 0.000000
vt 0.000000 0.000000
vt 0.000000 0.000000
vt 0.000000 0.000000
vt 0.000000 0.000000
vt 0.000000 0.000000
vt 0.000000 0.000000
vt 0.000000 0.000000
vt 0.000000 0.000000
vt 0.000000 0.000000
vt 0.000000 0.000000
vt 0.000000 0.000000
vt 0.000000 0.000000
vt 0.000000 0.000000
vt 0.000000 0.000000
vt 0.000000 0.000000
vn 0.0000 1.0000 0.0000
vn -1.0000 0.0000 -0.0000
vn 0.0000 0.0000 -1.0000
vn -0.0000 0.0000 1.0000
vn 1.0000 0.0000 0.0000
vn 0.0000 -1.0000 0.0000
vn 0.0000 -0.6302 -0.7764
vn 0.0000 0.6302 -0.7764
vn 0.5490 0.6302 -0.5490
vn 0.5490 -0.6302 -0.5490
vn 0.7764 0.6302 0.0000
vn 0.7764 -0.6302 0.0000
vn 0.5490 0.6302 0.5490
vn 0.5490 -0.6302 0.5490
vn 0.0000 0.6302 0.7764
vn 0.0000 -0.6302 0.7764
vn -0.5490 0.6302 0.5490
vn -0.5490 -0.6302 0.5490
vn -0.7764 0.6302 0.0000
vn -0.7764 -0.6302 0.0000
vn -0.5490 0.6302 -0.5490
vn -0.5490 -0.6302 -0.5490
usemtl Material
s off
f 5/1/1 7/2/1 8/3/1 6/4/1
f 4/5/2 3/6/2 8/3/2 7/2/2
f 1/7/3 4/5/3 7/2/3 5/1/3
f 3/6/4 2/8/4 6/4/4 8/3/4
f 2/8/5 1/7/5 5/1/5 6/4/5
f 12/9/1 10/10/1 24/11/1 22/12/1 20/13/1 18/14/1 16/15/1 14/16/1
f 9/17/6 11/18/6 13/19/6 15/20/6 17/21/6 19/22/6 21/23/6 23/24/6
s 1
f 9/17/7 10/10/8 12/9/9 11/18/10
f 11/18/10 12/9/9 14/16/11 13/19/12
f 13/19/12 14/16/11 16/15/13 15/20/14
f 15/20/14 16/15/13 18/14/15 17/21/16
f 17/21/16 18/14/15 20/13/17 19/22/18
f 19/22/18 20/13/17 22/12/19 21/23/20
f 21/23/20 22/12/19 24/11/21 23/24/22
f 23/24/22 24/11/21 10/10/8 9/17/7
