# Blender v2.79 (sub 0) OBJ File: 'bricks.blend'
# www.blender.org
v 1.000000 0.000000 -1.000000
v 1.000000 0.000000 0.000000
v 0.000000 0.000000 -0.000000
v 0.000000 0.000000 -1.000000
v 1.000000 1.197869 -1.000000
v 1.000000 1.197869 0.000001
v -0.000000 1.197869 -0.000000
v 0.000000 1.197869 -1.000000
v 0.750000 1.189469 -0.750000
v 0.750000 1.189469 -0.250000
v 0.250000 1.189469 -0.250000
v 0.250000 1.189469 -0.750000
v 0.750000 1.500545 -0.750000
v 0.750000 1.500545 -0.250000
v 0.250000 1.500545 -0.750000
v 0.250000 1.500545 -0.250000
vt 0.000000 0.000000
vt 1.000000 0.000000
vt 1.000000 1.000000
vt 0.000000 1.000000
vt 0.000000 0.000000
vt 1.000000 0.000000
vt 1.000000 1.000000
vt 0.000000 1.000000
vt 1.000000 0.000000
vt 1.000000 1.000000
vt 0.000000 1.000000
vt 0.000000 0.000000
vt 1.000000 0.000000
vt 0.000000 1.000000
vt 0.000000 0.000000
vt 1.000000 0.000000
vt 1.000000 1.000000
vt 1.000000 0.000000
vt 1.000000 1.000000
vt 0.000000 1.000000
vt 0.000000 0.000000
vt 1.000000 0.000000
vt 1.000000 1.000000
vt 0.000000 1.000000
vt 1.000000 0.000000
vt 1.000000 1.000000
vt 0.000000 0.000000
vt 0.000000 1.000000
vn 0.0000 -1.0000 0.0000
vn 0.0000 1.0000 0.0000
vn 1.0000 0.0000 0.0000
vn -0.0000 -0.0000 1.0000
vn -1.0000 -0.0000 -0.0000
vn 0.0000 0.0000 -1.0000
s off
f 1/1/1 2/2/1 3/3/1 4/4/1
f 5/5/2 8/6/2 7/7/2 6/8/2
f 1/1/3 5/9/3 6/10/3 2/11/3
f 2/12/4 6/13/4 7/7/4 3/14/4
f 3/15/5 7/16/5 8/17/5 4/4/5
f 5/5/6 1/18/6 4/19/6 8/20/6
f 13/21/2 15/22/2 16/23/2 14/24/2
f 12/25/5 11/26/5 16/23/5 15/22/5
f 9/27/6 12/25/6 15/22/6 13/21/6
f 11/26/4 10/28/4 14/24/4 16/23/4
f 10/28/3 9/27/3 13/21/3 14/24/3
